# xmcd CD database file
# Copyright (C) 1993-1997  Ti Kan
#
# Track frame offsets:
#	150
#	14438
#	35588
#	47160
#	57968
#	68200
#	89733
#	120375
#	133508
#	150808
#	161258
#
# Disc length: 2401 seconds
#
# Revision: 1
# Processed by: cddbd v1.4b41PL1 Copyright (c) Steve Scherf et al.
# Submitted via: xmcd 2.1 PL2
#
DISCID=87095f0b
DTITLE=Bob Pearce - Keep On Keepin' On
DYEAR=1900
DGENRE=
TTITLE0=Keep On Keepin' On
TTITLE1=Rolling and Tumbling Blues
TTITLE2=8th Wonder Of The World
TTITLE3=Mr. John's Blues
TTITLE4=The French Car and The Ford
TTITLE5=Cadillac Assembly Line
TTITLE6=Cancel My Reservation
TTITLE7=If You Can't Trust Me Baby
TTITLE8=Your Friends  Is Hurtin' Too
TTITLE9=What Will Lucy Do
TTITLE10=I Wanna Take Care Of You
EXTD=
EXTT0=
EXTT1=
EXTT2=
EXTT3=
EXTT4=
EXTT5=
EXTT6=
EXTT7=
EXTT8=
EXTT9=
EXTT10=
PLAYORDER=
